<svg id="Layer_1" data-name="Layer 1" xmlns="http://www.w3.org/2000/svg" width="217.98mm" height="63.83mm" viewBox="0 0 617.88 180.94"><title>new-logo</title><path d="M181.24,174.12h1.42v-13.6h-1.42v-.2h5.18v.2H185v13.6h2.78a2.61,2.61,0,0,0,1.62-.51,3.27,3.27,0,0,0,1-1.31,4,4,0,0,0,.36-1.64H191v3.66h-9.8Z" style="fill:#000000;stroke:#000000"/><path d="M230.92,173.67a6,6,0,0,1-2.38-2.49,8.12,8.12,0,0,1-.86-3.84,8.23,8.23,0,0,1,.86-3.86,6,6,0,0,1,2.38-2.51,7.16,7.16,0,0,1,3.58-.87,7.05,7.05,0,0,1,3.57.88,6,6,0,0,1,2.41,2.51,9,9,0,0,1,0,7.69,6,6,0,0,1-2.41,2.49,7.78,7.78,0,0,1-7.15,0Zm6.12-.32a4.93,4.93,0,0,0,1.12-2.48,24.16,24.16,0,0,0,0-7.07,5,5,0,0,0-1.12-2.5,3.71,3.71,0,0,0-5.08,0,5.12,5.12,0,0,0-1.11,2.5,25,25,0,0,0,0,7.05,5.05,5.05,0,0,0,1.11,2.48,3.74,3.74,0,0,0,5.08,0Z" style="fill:#000000;stroke:#000000"/><path d="M277.89,174.12h1.42v-13.6h-1.42v-.2h4.21l6.73,9.78v-9.58h-1.46v-.2h3.11v.2H289.1v13.8h-.31l-9.23-13.38v13.18h1.77v.2h-3.44Z" style="fill:#000000;stroke:#000000"/><path d="M327,174.12h1.4v-13.6H327v-.2h5.58a7.33,7.33,0,0,1,3.51.79,5.42,5.42,0,0,1,2.3,2.34,8,8,0,0,1,.81,3.77,8.44,8.44,0,0,1-.81,3.84,5.62,5.62,0,0,1-2.32,2.43,7.12,7.12,0,0,1-3.51.83H327Zm5.36,0a3.26,3.26,0,0,0,2.54-1,4.76,4.76,0,0,0,1.16-2.44,18.78,18.78,0,0,0,.28-3.5,20.49,20.49,0,0,0-.22-3.23,4.91,4.91,0,0,0-1.05-2.42,3,3,0,0,0-2.51-1h-1.8v13.58Z" style="fill:#000000;stroke:#000000"/>
	<path d="M380,173.67a6,6,0,0,1-2.38-2.49,8.12,8.12,0,0,1-.86-3.84,8.23,8.23,0,0,1,.86-3.86A6,6,0,0,1,380,161a7.16,7.16,0,0,1,3.58-.87,7.05,7.05,0,0,1,3.57.88,6,6,0,0,1,2.41,2.51,9,9,0,0,1,0,7.69,6,6,0,0,1-2.41,2.49,7.78,7.78,0,0,1-7.15,0Zm6.12-.32a4.93,4.93,0,0,0,1.12-2.48,24.16,24.16,0,0,0,0-7.07,5,5,0,0,0-1.12-2.5,3.71,3.71,0,0,0-5.08,0,5.12,5.12,0,0,0-1.11,2.5,25,25,0,0,0,0,7.05,5.05,5.05,0,0,0,1.11,2.48,3.74,3.74,0,0,0,5.08,0Z" style="fill:#000000;stroke:#000000"/>
	<path d="M426.94,174.12h1.42v-13.6h-1.42v-.2h4.23l6.72,9.78v-9.58h-1.46v-.2h3.11v.2h-1.37v13.8h-.32l-9.23-13.38v13.18h1.77v.2h-3.45Z" style="fill:#000000;stroke:#000000"/>
	<path d="M1.86,116.73H12.53V5.21H1.86V3.61H31.17V53.16a23,23,0,0,1,4.54-7.57,34.44,34.44,0,0,1,8.13-7,21.92,21.92,0,0,1,9.48-3.42c2.33-.21,4-.32,5.09-.32q12.59,0,19.92,7.72t7.33,22.71v51.46H95.85v1.59H56.5v-1.59H67V70.53q0-14.34-2.71-23.82T53.47,37.23a17.21,17.21,0,0,0-10,3.34,31.12,31.12,0,0,0-8,8.21,27.35,27.35,0,0,0-4.22,9.16v58.79H41.84v1.59h-40Z" style="fill:#000000"/>
	<path d="M117.28,114.5A39.47,39.47,0,0,1,102,99a45.77,45.77,0,0,1-5.5-22.54q0-13.55,5.82-22.94A37.05,37.05,0,0,1,118,39.3a52.22,52.22,0,0,1,43.65,0,37.05,37.05,0,0,1,15.69,14.18q5.82,9.41,5.82,22.94,0,13.23-5.74,23.1a39.45,39.45,0,0,1-15.61,15.22,45.51,45.51,0,0,1-22,5.33A44.75,44.75,0,0,1,117.28,114.5Zm39.43-7.41q4.93-11.39,4.94-30.67,0-18.8-4.86-29.55t-17-10.76q-12.1,0-17,10.76T118,76.42q0,19.27,4.94,30.67t16.88,11.39Q151.77,118.48,156.71,107.09Z" style="fill:#000000"/>
	<path d="M247.84,100a25.26,25.26,0,0,1-4.7,7.73,35.2,35.2,0,0,1-8,7,21.49,21.49,0,0,1-9.4,3.42c-2.34.21-4,.32-5.1.32q-12.58,0-19.92-7.73t-7.32-22.7V36.59h-10.2V35H212V82.79q0,14.34,2.7,23.82t10.84,9.48a17.15,17.15,0,0,0,10-3.35,31.08,31.08,0,0,0,8.05-8.2,27.35,27.35,0,0,0,4.22-9.16V36.59H237.17V35h29.31v81.73h10.68v1.59H247.84Z" style="fill:#000000"/><path d="M341.52,95.38q0,11.15-7.65,17.44t-19.59,7.25a12.93,12.93,0,0,1-2.39.16h-.64a54.88,54.88,0,0,1-15.14-2.71,35,35,0,0,0-8.28-1.75,5.65,5.65,0,0,0-4.94,2.55h-1.43V90.76h1.59a26.09,26.09,0,0,0,4,11.47,39.25,39.25,0,0,0,9.64,10.91,25.31,25.31,0,0,0,13,5.5,19.64,19.64,0,0,0,2.86.16q8.44,0,12.27-4.06a13.79,13.79,0,0,0,3.82-9.8,16.64,16.64,0,0,0-1.27-6.53,17.14,17.14,0,0,0-6.13-7.09q-4.54-3.27-14.42-8.85l-5.74-3.18q-10.2-5.9-15.13-10.84A16.62,16.62,0,0,1,281,56.19q0-13.06,9.64-17.37a50,50,0,0,1,20.63-4.3,58.21,58.21,0,0,1,14.5,2.07,38.37,38.37,0,0,0,5.57,1A4.32,4.32,0,0,0,335.47,35h1.43V61.92h-1.59q-.17-11-6.22-18.64t-18-7.64a36.71,36.71,0,0,0-13.38,2.23A8.21,8.21,0,0,0,292,46.15a11.65,11.65,0,0,0,.16,2.23A8.3,8.3,0,0,0,295.88,54a112,112,0,0,0,10.27,6.13L309,61.6q10.67,5.58,16.81,9.48a44.68,44.68,0,0,1,10.43,9.08A22.34,22.34,0,0,1,341.36,92,27,27,0,0,1,341.52,95.38Z" style="fill:#000000"/>
	<path d="M370.36,115A39.86,39.86,0,0,1,354,100q-6.13-9.89-6.14-23.58,0-13.07,5.58-22.54A36.9,36.9,0,0,1,368.6,39.46,45.87,45.87,0,0,1,390,34.52q20.07,0,29,12.27,6.53,8.93,6.53,24.37H369.4V74a145.26,145.26,0,0,0,1.43,21.83,35.47,35.47,0,0,0,6.06,15.61q4.62,6.38,13.7,7l3,.16A44.15,44.15,0,0,0,409,115.85a41.65,41.65,0,0,0,12.19-6.61l1.11,1.27a40.61,40.61,0,0,1-13.62,7.09,54.22,54.22,0,0,1-16.33,2.47A48.54,48.54,0,0,1,370.36,115ZM408,69.57A68.31,68.31,0,0,0,405.25,47q-3.19-10.52-14.66-11H390q-8.44,0-12.9,4.46a22.63,22.63,0,0,0-6,11.63,92.89,92.89,0,0,0-1.67,17.53Z" style="fill:#000000"/>
	<path d="M470.19,115.13a40,40,0,0,1-16.89-14.81q-6.37-9.88-6.37-23.9,0-13.22,6.05-22.7a38.78,38.78,0,0,1,16.17-14.34,50,50,0,0,1,21.91-4.86,47.3,47.3,0,0,1,17.29,2.95,27,27,0,0,1,11.71,8.2,13.55,13.55,0,0,1,3,8.6,13.34,13.34,0,0,1-4.06,9.8,13.45,13.45,0,0,1-19.28,0,13.34,13.34,0,0,1-4.06-9.8A13.14,13.14,0,0,1,499,45.35a13.67,13.67,0,0,1,8.29-4.62c.64-.1,1-.34,1.19-.71s0-.77-.55-1.2q-1.12-.8-5.82-1.83a50.25,50.25,0,0,0-10.75-1q-13.86,0-18.4,10.2T468.44,74a125.51,125.51,0,0,0,1.75,22.54,31.7,31.7,0,0,0,7.41,15.78q5.65,6.29,16.65,6.29a40.31,40.31,0,0,0,14.89-2.79,31.89,31.89,0,0,0,11.07-6.77l1.12,1.43a43.51,43.51,0,0,1-28,9.56A53.54,53.54,0,0,1,470.19,115.13Z" style="fill:#000000"/>
	<path d="M564,117.68a22.27,22.27,0,0,1-8-5.33,12.24,12.24,0,0,1-3.26-5.82v11.79H523.4v-1.59h10.67V5.21H523.4V3.61h29.32V53.48a22.21,22.21,0,0,1,4.93-8.37,31.73,31.73,0,0,1,9.88-7.4,29.84,29.84,0,0,1,13.54-3,29.12,29.12,0,0,1,18.09,5.73,35,35,0,0,1,11.39,15.46,57.35,57.35,0,0,1,3.82,21.19,50,50,0,0,1-4.78,22.22,36.33,36.33,0,0,1-13.38,15.22,35.75,35.75,0,0,1-19.44,5.41A32.5,32.5,0,0,1,564,117.68Zm26.6-10.11q3.2-10,3.19-25.1V77.54a91.14,91.14,0,0,0-4.06-27.73q-4.07-12.73-14.26-12.74a18.25,18.25,0,0,0-10.44,3.74,33.62,33.62,0,0,0-8.84,9.08q-3.51,5.34-3.5,9.64v41.74a17.19,17.19,0,0,0,7.72,13.07,24.3,24.3,0,0,0,16.33,4Q587.45,117.53,590.63,107.57Z" style="fill:#000000"/>
	<path d="M429.61,50.08a6.29,6.29,0,0,1-2.51-2.62,8.62,8.62,0,0,1-.89-4,8.78,8.78,0,0,1,.89-4.06,6.25,6.25,0,0,1,2.51-2.63,7.51,7.51,0,0,1,3.76-.92,7.4,7.4,0,0,1,3.75.93,6.3,6.3,0,0,1,2.53,2.63,8.47,8.47,0,0,1,.91,4,8.38,8.38,0,0,1-.91,4,6.27,6.27,0,0,1-2.53,2.62,8.2,8.2,0,0,1-7.51,0Zm6.43-.34a5.34,5.34,0,0,0,1.18-2.6,22.19,22.19,0,0,0,.27-3.71,22.32,22.32,0,0,0-.27-3.72A5.44,5.44,0,0,0,436,37.08a3.91,3.91,0,0,0-5.34,0,5.32,5.32,0,0,0-1.16,2.63,22.2,22.2,0,0,0-.26,3.71,22.08,22.08,0,0,0,.26,3.7,5.22,5.22,0,0,0,1.16,2.6,3.93,3.93,0,0,0,5.34,0Z" style="fill:#000000;stroke:#000000;stroke-miterlimit:10"/>
	<path d="M442.2,50.55h1.49V36.26H442.2v-.21h10.08v3.83H452a4.17,4.17,0,0,0-.38-1.72,3.54,3.54,0,0,0-1.09-1.36,2.76,2.76,0,0,0-1.7-.54h-2.71v6.83h3.67V42h.28v2.29h-.28v-1h-3.67v7.25h1.49v.21H442.2Z" style="fill:#000000;stroke:#000000;stroke-miterlimit:10"/>
</svg>